<svg xmlns="http://www.w3.org/2000/svg" viewBox="650 460 1760 1040" preserveAspectRatio="xMidYMid meet" role="img" aria-label="bifrost">
  <!-- 모노 잉크 단색 로고. 라이트 배경용 #0D0D0D. 다크 배경에는 fill 을 #FFFFFF 로 교체하거나 currentColor 로 바꿔 사용. -->
  <g fill="#0D0D0D">
    <path d="M964.808 863.061c1.298 2.335 1.102 2.098 1.908 4.249 3.046 8.129 11.387 14.656 9.984 24.097-.375 2.528.027 5.949 1.902 7.938 4.792 5.085 7.935-.251 8.446 5.208-2.106 4.149-2.057 2.181-.882 6.064 2.435 2.224 2.426 2.154 5.403 3.633-1.115 1.852-.47.945-1.963 2.7 1.23 3.529 2.835 10.453 5.286 12.047l3.511-.178c3.367 5.015-1.004 4.217 2.767 8.928l4.18.251c2.43 5.306 8.91 18.478 9.56 23.874l-.9 1.141-4.32-.585c-.04 2.863-.43 1.56 1.41 3.971 2.78-.384 3.95-1.048 6.14-.123l.9 3.364c-67.362 107.84-128.977 228.12-170.134 348.72l251.224.11c6.05-25.43 17.91-58.44 26.07-83.45 4.84-14.84 13.92-41.4 19.92-54.84 3.83 7.03-7.23 11.48 8 19.32 3.74 5.45 8.71 24.63 10.61 32.16-.12-.48 3.66 1.64 4.8 2.55 1.85 16.14 1.92 11.31 14.32 20.86-.16 2.53-.43 2.58-1.64 4.88l8.24 11.57 4.07-1.16 1 1.93c-2.06 1.92-4.71 2.14-7.56 2.8l.21.94c6.05 2.43 14.17 4.33 16.55 10.91 3.15 8.73-1.77 16.95 9.28 20.08 1.41 3.06.96 1.99 1.16 5.61-6.11 19.09-11.93 38.28-17.45 57.55-3.21 11.15-6.27 23.08-10.25 33.91-.93 2.51-4.87 9.97-7.2 10.84-4.3 1.59-13.3 2.71-17.87 2.73-50.04.21-100.28.15-150.3.15l-267.541-.26c-11.874.29-24.344 2.96-32.866-6.41-5.063-10.47 12.68-54.96 17.149-68.23 55.611-170.45 135.382-332.05 236.876-479.849"/>
    <path d="M1304.92 554.583c7.2-.383 6.04-2.599 12.55-3.998l-4.96 5.942c2.47 2.511 3.78 3.292 4.35 6.958-2.33 9.73-8.04 7.506-5.37 20.101 3.42 16.182 24.69 8.61 9.79 23.474-.47 3.2-.62 3.019.69 5.934 12.8 8.064-1.44 25.82 4.6 33.675 2.67.879 4.97 1.643 7.6 2.7l.38 1.619c-2.33 2.145-3.01 2.296-5.81 3.694.99 1.818.28 1.128 2.12 2.068-20.78 11.592-41.93 23.243-61.53 36.776-79.18 54.69-144.13 127.402-201.14 204.19a1000 1000 0 0 0-31.49 44.502c-5.42 8.02-12.89 19.971-18.56 27.422l-.9-3.364c-2.19-.925-3.36-.261-6.14.123-1.84-2.411-1.45-1.108-1.41-3.971l4.32.585.9-1.141c-.65-5.396-7.13-18.568-9.56-23.874l-4.18-.251c-3.771-4.711.6-3.913-2.767-8.928l-3.511.178c-2.451-1.594-4.056-8.518-5.286-12.047 1.493-1.755.848-.848 1.963-2.7-2.977-1.479-2.968-1.409-5.403-3.633-1.175-3.883-1.224-1.915.882-6.064-.511-5.459-3.654-.123-8.446-5.208-1.875-1.989-2.277-5.41-1.902-7.938 1.403-9.441-6.938-15.968-9.984-24.097-.806-2.151-.61-1.914-1.908-4.249 14.29-21.917 38.202-52.173 54.342-72.433 63.22-79.365 139.1-153.517 225.68-206.934 12.51-7.72 29.51-18.436 42.82-24.319 3.77-2.422 10.88-5.692 15.11-7.794z"/>
    <path d="M2078.76 848.614c3.78-3.629 4.44-4.835 9.39-5.257 8.95 3.535 5.83 9.452 12.81 13.332l1.97-.891c6.71 7.092 33.34 48.708 40 59.024 85.6 135.628 153.96 281.398 203.49 433.928 4.93 14.99 10.05 30.5 15.31 45.34 11.19 31.53-31.09 23.19-52.23 23.48l-252.44.32-86.26.02c-16.07-.02-32.2.13-48.26-.4-6.39-.31-13.86-2.87-15.71-9.78-6.78-25.26-11.3-51.69-17.08-77.24-9.1-38.62-19.38-76.95-30.82-114.94.74-2.03 1.38-3.78.7-5.94-4.09-12.99-8.48-26.04-12.86-38.92-5.69-16.76-12.06-32.38-15.84-49.71-.98-.28-1.96-.56-2.93-.85-2.86-8.04 2.75-6.28-2.23-14.47-1.98.47-.92.25-3.21.66-1.77-2.67.64-15.85-6.87-20.3.19-3.43 9.78-9.29 9.48-16.51-2.15-2.3-2.7-2.55-3.84-5.52 6.2-11.04 5.74-20.14 8.71-32.88l-.6-.72c-6.4-8.6 2.24-7.87 1.83-13.74-.25-3.75-5.06-14.76-4.77-17.894.25-2.579 3.41-7.9 3.89-12.171-8.17-10.546 6.48-17.567 5.28-23.048-2.1-9.619-15.45-13.733-4.16-28.631.07-3.285.38-12.669-.6-15.238-2.16-5.661-5.76-7.026-5.07-13.72 2.93.129 5.68-1.266 8.45-2.249 12.4 5.529 57.65 114.421 64.38 118.421 4.23 6.71 14.15 32.66 17.45 40.83 26.65 66.22 48.91 134.12 66.66 203.25 4.25 16.47 9.56 35.81 12.96 52.22l110.51-.07c4.77 0 36.91-.19 39.42.42 4.23-.05 10.99-.35 14.98.09 12.06-1.49 51.03-.41 64.78-.32-4.52-9.18-12.05-31.4-16.23-42.23-9.83-24.97-20.12-49.76-30.85-74.35-37.06-84.53-81.03-165.86-131.46-243.155l1.29-1.387c-.39-2.341.88-5.27 2.25-7.008 2.58-3.285 1.98-15.872 3.8-18.682 3.78-5.824 8.48-4.558 9.95-13.476l1.15-6.631c1.98-2.431 6.76-3.311 10-4.284 1.16-2.131.93-1.005.27-3.504l-3.62-1.192c-1.79-2.157-.4-13.475-.19-17.3l-1.98-1.575-4.48.69-1.16-1.516.31-2.116c2.53.201 2.7.395 5.08-.317l.28-1.887c-1.36-1.415-1.7-1.456-3.54-2.051l-1.74-.549c.42-2.631.01-1.363 1.95-3.609 3.93-.068 5.23 2.21 9.89 4.485l1.52-1.512c.46-4.678-2.02-18.267-2.47-24.397z"/>
    <path d="M1380.18 747.817c6.69 2.344 5.97-2.219 13.5 6.735l1.1-.516c-1.01-2.385-1.42-2.48-3.28-4.36 1.63-2.279.62-1.268 4.52-2.038l1.45.751c.72 7.079-.52 18.578-2.32 25.454l-1.04.123-1.61-1.451-1.35 2.01c1.38 7.042 2.85 12.532 8.7 17.449.55.461 4.96 3.395 4.78 3.909-1.53 4.219-5.1 5.876-1.68 9.683 4.77 1.157 4.16.281 7.24 3.218-1.18 4.774-2.68 4.902-2.02 9.914 2.01 2.726 3.59 4.935 5.4 7.789l-.61 2.029-4.21 1.762-.71 2.253c3.12 3.826 1.57-.504 3.76 1.516 1.34 1.225 3.11 9.2 3.53 10.796l-2.23 1.327c-.1 3.605-.08 2.474 2.25 6.083l-3.21 1.342.49 1.18 3.69.63c.98 6.932-7.73 11.824 3.47 14.408l1.81 2.366c-.6.776-3.44 4.588-3.97 4.945-2.79 4.924-4.12 7.084-7.53 11.65-36.56 56.917-70.36 113.606-98.11 175.466-4.66 10.38-9.65 20.95-14.68 31.14 56.89-35.54 115.42-57.28 178.86-77.29 28.99-8.5 58.33-15.7 87.96-21.581 8.38-1.67 23.32-4.955 31.49-5.637 4.68.966 13.62.964 18.21-.267 9.33-2.504 28.41-.417 35.13-5.191 1.84 3.192 2.15 35.486.9 40.236-2.59 2.22-1.9.86-2.28 4.13 3.24 6.28 4.86 7.68.59 13.68.14 6.5 8.39 23.31 7.2 29.43l-1.95.65c1.72 1.15 3.3 2.22 4.96 3.45-2.26-.4-1.47-.11-3.39-1.38-5.26-.23-13.07 5.08-19.98 2.67-1.1-.38-4.37 3.04-5.35 4.12-34.67 7.4-69.72 11.15-103.91 21.97-4.55 1.45-32.29 9.88-35.63 9.96-20.84 8.18-41.19 13.81-63.7 23.6-76 33.02-157.63 79.19-204.29 150.05-2.09 3.18-6.18 20.05-7.87 24.65-.2-3.62.25-2.55-1.16-5.61-11.05-3.13-6.13-11.35-9.28-20.08-2.38-6.58-10.5-8.48-16.55-10.91l-.21-.94c2.85-.66 5.5-.88 7.56-2.8l-1-1.93-4.07 1.16-8.24-11.57c1.21-2.3 1.48-2.35 1.64-4.88-12.4-9.55-12.47-4.72-14.32-20.86-1.14-.91-4.92-3.03-4.8-2.55-1.9-7.53-6.87-26.71-10.61-32.16-15.23-7.84-4.17-12.29-8-19.32 1.02-6.19 17.32-45.59 20.82-54.32 46.43-115.95 104.22-230.226 177.97-331.356 8.95-12.26 26.21-36.406 36.17-46.687"/>
    <path d="M1302.76 551.581c100.33-48.554 192.79-62.274 302.61-50.517 65.57 12.299 150.07 33.756 205.58 72.393-2.5 3.606-4.22 4.459-6.83 8.841l-4.58.28-.96 1.1c15.14 6.557-.03 6.275.99 21.833 1.98-.308 1.04-.266 2.81-.163.82 2.406 3.79 9.422 2.93 10.983-1.98 3.623-1.34 8.601-4.68 11.248l-2.1.333c1.69 3.596-.39-.613 1.43 2.469 3.68 6.214.72 22.077-1.58 28.833-1.48 4.358-3.12 5.772-2.76 10.679-7.39 4.591-9.42 5.098-13.65 12.648-30.19-18.344-65.44-36.111-98.96-47.364-26.56 9.005-51.2 27.147-74.89 40.972l-.62.555c-7.29 6.41-15.93 12.174-23.61 18.228-62.31 49.139-117.67 111.817-162.29 177.247l-1.81-2.366c-11.2-2.584-2.49-7.476-3.47-14.408l-3.69-.63-.49-1.18 3.21-1.342c-2.33-3.609-2.35-2.478-2.25-6.083l2.23-1.327c-.42-1.596-2.19-9.571-3.53-10.796-2.19-2.02-.64 2.31-3.76-1.516l.71-2.253 4.21-1.762.61-2.029c-1.81-2.854-3.39-5.063-5.4-7.789-.66-5.012.84-5.14 2.02-9.914-3.08-2.937-2.47-2.061-7.24-3.218-3.42-3.807.15-5.464 1.68-9.683.18-.514-4.23-3.448-4.78-3.909-5.85-4.917-7.32-10.407-8.7-17.449l1.35-2.01 1.61 1.451 1.04-.123c1.8-6.876 3.04-18.375 2.32-25.454l-1.45-.751c-3.9.77-2.89-.241-4.52 2.038 1.86 1.88 2.27 1.975 3.28 4.36l-1.1.516c-7.53-8.954-6.81-4.391-13.5-6.735 9.07-12.799 21.31-26.265 31.87-38.001 34.38-38.948 72.63-74.291 114.17-105.483-63.96-.708-138.43 24.553-195.36 52.417-1.84-.94-1.13-.25-2.12-2.068 2.8-1.398 3.48-1.549 5.81-3.694l-.38-1.619c-2.63-1.057-4.93-1.821-7.6-2.7-6.04-7.855 8.2-25.611-4.6-33.675-1.31-2.915-1.16-2.734-.69-5.934 14.9-14.864-6.37-7.292-9.79-23.474-2.67-12.595 3.04-10.371 5.37-20.101-.57-3.666-1.88-4.447-4.35-6.958l4.96-5.942c-6.51 1.399-5.35 3.615-12.55 3.998z"/>
    <path d="M1605.37 501.064c65.57 12.299 150.07 33.756 205.58 72.393-2.5 3.606-4.22 4.459-6.83 8.841l-4.58.28-.96 1.1c15.14 6.557-.03 6.275.99 21.833 1.98-.308 1.04-.266 2.81-.163.82 2.406 3.79 9.422 2.93 10.983-1.98 3.623-1.34 8.601-4.68 11.248l-2.1.333c1.69 3.596-.39-.613 1.43 2.469 3.68 6.214.72 22.077-1.58 28.833-1.48 4.358-3.12 5.772-2.76 10.679-7.39 4.591-9.42 5.098-13.65 12.648-30.19-18.344-65.44-36.111-98.96-47.364-26.56 9.005-51.2 27.147-74.89 40.972l.01-3.01c13-8.846 14.54-8.73 8.24-18.123-.15-.221 4.04-8.395 3.86-11.982l-4.08-2.262c-1.81-3.197.59-22.943-.23-31.008l-2.25-1.705c-1.01-4.367 2.42-4.802 2.2-6.083-1.18-6.984-3.71-13.718-3.53-20.909 1.45-1.857 1.9-2.525 3.08-4.563-1.03-4.099-2.1-8.188-3.22-12.264l.4-1.003.63-1.681c.37-.965 2.28-5.857 2.26-6.453-.35-10.314 3.47-40.92-1.67-48.184-2.92-2.095-4.41-1.943-7.98-2.346l-1.3-.137-.81-1.271z"/>
    <path d="M1617.07 766.32c12.51-10.548 57.91-48.237 71-47.054 18.42 1.664 85.8 87.105 100.4 106.447 37.61 49.856 68.48 105.413 94.95 161.88 5.17 11.03 11.93 22.867 15.25 34.527-6.73-4-51.98-112.892-64.38-118.421-2.77.983-5.52 2.378-8.45 2.249-.69 6.694 2.91 8.059 5.07 13.72.98 2.569.67 11.953.6 15.238-11.29 14.898 2.06 19.012 4.16 28.631 1.2 5.481-13.45 12.502-5.28 23.048-.48 4.271-3.64 9.592-3.89 12.171-.29 3.134 4.52 14.144 4.77 17.894.41 5.87-8.23 5.14-1.83 13.74l.6.72c-2.97 12.74-2.51 21.84-8.71 32.88 1.14 2.97 1.69 3.22 3.84 5.52.3 7.22-9.29 13.08-9.48 16.51 7.51 4.45 5.1 17.63 6.87 20.3 2.29-.41 1.23-.19 3.21-.66 4.98 8.19-.63 6.43 2.23 14.47.97.29 1.95.57 2.93.85 3.78 17.33 10.15 32.95 15.84 49.71 4.38 12.88 8.77 25.93 12.86 38.92.68 2.16.04 3.91-.7 5.94-11.91-33.05-21.29-67.42-34.49-100.19-5.78-14.37-12.31-29.98-17.1-44.57-47.3.87-94.15.85-141.18 7.23-11.98 1.63-24.5 3.2-36.5 4.38.98-1.08 4.25-4.5 5.35-4.12 6.91 2.41 14.72-2.9 19.98-2.67 1.92 1.27 1.13.98 3.39 1.38-1.66-1.23-3.24-2.3-4.96-3.45l1.95-.65c1.19-6.12-7.06-22.93-7.2-29.43 4.27-6 2.65-7.4-.59-13.68.38-3.27-.31-1.91 2.28-4.13 1.25-4.75.94-37.044-.9-40.236-6.72 4.774-25.8 2.687-35.13 5.191-4.59 1.231-13.53 1.233-18.21.267 43.23-8.418 90.48-12.702 134.46-14.691 9.97-.451 21.41-1.619 31.07-1.345-34.16-63.357-73.97-120.561-125.22-171.24-13.43-13.278-25.34-17.566-18.86-37.276"/>
    <path d="M1810.95 573.457c15.08 7.886 37.37 22.881 51.41 32.817 79.55 56.297 149.18 128.127 208.35 205.321 10.26 13.38 23.13 30.135 32.22 44.203l-1.97.891c-6.98-3.88-3.86-9.797-12.81-13.332-4.95.422-5.61 1.628-9.39 5.257l-3.31 2.373c.45 6.13 2.93 19.719 2.47 24.397l-1.52 1.512c-4.66-2.275-5.96-4.553-9.89-4.485-1.94 2.246-1.53.978-1.95 3.609l1.74.549c1.84.595 2.18.636 3.54 2.051l-.28 1.887c-2.38.712-2.55.518-5.08.317l-.31 2.116 1.16 1.516 4.48-.69 1.98 1.575c-.21 3.825-1.6 15.143.19 17.3l3.62 1.192c.66 2.499.89 1.373-.27 3.504-3.24.973-8.02 1.853-10 4.284l-1.15 6.631c-1.47 8.918-6.17 7.652-9.95 13.476-1.82 2.81-1.22 15.397-3.8 18.682-1.37 1.738-2.64 4.667-2.25 7.008l-1.29 1.387c-74.78-108.656-151.64-204.48-264.92-276.264 4.23-7.55 6.26-8.057 13.65-12.648-.36-4.907 1.28-6.321 2.76-10.679 2.3-6.756 5.26-22.619 1.58-28.833-1.82-3.082.26 1.127-1.43-2.469l2.1-.333c3.34-2.647 2.7-7.625 4.68-11.248.86-1.561-2.11-8.577-2.93-10.983-1.77-.103-.83-.145-2.81.163-1.02-15.558 14.15-15.276-.99-21.833l.96-1.1 4.58-.28c2.61-4.382 4.33-5.235 6.83-8.841"/>
  </g>
</svg>
